<svg xmlns="http://www.w3.org/2000/svg" version="1.1" xmlns:xlink="http://www.w3.org/1999/xlink" xmlns:svgjs="http://svgjs.dev/svgjs" width="1440" height="560" preserveAspectRatio="none" viewBox="0 0 1440 560"><g mask="url(&quot;#SvgjsMask1159&quot;)" fill="none"><rect width="1440" height="560" x="0" y="0" fill="#0e2a47"></rect><path d="M697.7055966593136 424.6304936135359L808.8733535321237 514.652368135242 898.8952280538297 403.484611262432 787.7274711810197 313.4627367407259z" fill="rgba(28, 83, 142, 0.4)" class="triangle-float3"></path><path d="M719.662,208.963C763.986,209.393,804.582,184.313,826.414,145.736C847.924,107.728,848.708,59.934,824.617,23.506C802.538,-9.88,759.672,-14.545,719.662,-15.683C676.657,-16.907,627.213,-18.886,603.826,17.224C579.141,55.338,592.954,104.833,616.435,143.701C638.997,181.047,676.032,208.54,719.662,208.963" fill="rgba(28, 83, 142, 0.4)" class="triangle-float3"></path><path d="M1064.2525332818975 79.7107113756825L1067.62710387516 176.34576960542523 1164.2621621049027 172.9711990121628 1160.8875915116403 76.33614078242005z" fill="rgba(28, 83, 142, 0.4)" class="triangle-float2"></path><path d="M497.682,327.366C515.892,327.59,529.634,312.763,538.527,296.871C547.171,281.424,551.353,262.74,542.39,247.476C533.517,232.367,515.203,227.519,497.682,227.316C479.71,227.108,460.054,230.811,451.144,246.42C442.285,261.94,449.632,280.396,458.539,295.888C467.483,311.445,479.738,327.146,497.682,327.366" fill="rgba(28, 83, 142, 0.4)" class="triangle-float3"></path><path d="M360.208,217.933C384.135,217.684,403.53,201.611,416.346,181.405C430.388,159.267,441.664,132.225,429.2,109.161C416.308,85.305,387.324,77.25,360.208,77.522C333.642,77.788,306.441,87.28,293.569,110.52C281.007,133.199,288.342,160.563,302.01,182.594C314.834,203.264,335.884,218.186,360.208,217.933" fill="rgba(28, 83, 142, 0.4)" class="triangle-float2"></path><path d="M1014.59,428.091C1062.808,429.642,1108.388,406.342,1134.33,365.667C1162.454,321.571,1174.967,264.303,1147.398,219.858C1120.853,177.063,1064.942,173.453,1014.59,172.63C962.113,171.773,900.263,169.924,874.046,215.391C847.841,260.837,878.57,314.6,907.491,358.368C932.661,396.46,968.957,426.623,1014.59,428.091" fill="rgba(28, 83, 142, 0.4)" class="triangle-float1"></path></g><defs><mask id="SvgjsMask1159"><rect width="1440" height="560" fill="#ffffff"></rect></mask><style>
                @keyframes float1 {
                    0%{transform: translate(0, 0)}
                    50%{transform: translate(-10px, 0)}
                    100%{transform: translate(0, 0)}
                }

                .triangle-float1 {
                    animation: float1 5s infinite;
                }

                @keyframes float2 {
                    0%{transform: translate(0, 0)}
                    50%{transform: translate(-5px, -5px)}
                    100%{transform: translate(0, 0)}
                }

                .triangle-float2 {
                    animation: float2 4s infinite;
                }

                @keyframes float3 {
                    0%{transform: translate(0, 0)}
                    50%{transform: translate(0, -10px)}
                    100%{transform: translate(0, 0)}
                }

                .triangle-float3 {
                    animation: float3 6s infinite;
                }
            </style></defs></svg>